<svg version="1.1" id="Layer_1" xmlns="http://www.w3.org/2000/svg" xmlns:xlink="http://www.w3.org/1999/xlink" x="0px" y="0px"
	 width="100%" viewBox="0 0 345 98" enable-background="new 0 0 345 98" xml:space="preserve">
<path fill="#000000" opacity="1.000000" stroke="none" 
	d="
M346.000000,96.000000 
	C346.000000,96.996429 346.000000,97.992859 346.000000,98.994644 
	C306.312439,99.000000 266.624878,99.000000 226.166321,98.695694 
	C239.432373,67.154938 253.469406,35.918484 267.812897,4.000065 
	C263.178162,4.000065 259.514221,3.714074 255.932938,4.133705 
	C254.391190,4.314359 252.320145,5.629890 251.685211,6.988577 
	C247.280487,16.414288 243.205429,25.993679 238.995438,35.510864 
	C234.485550,45.706020 229.943710,55.887047 225.415817,66.074242 
	C224.976517,66.374001 224.537216,66.673767 224.097931,66.973526 
	C223.801407,66.172157 223.540726,65.355347 223.203156,64.571648 
	C215.666107,47.074047 208.094025,29.591482 200.588501,12.080378 
	C197.135712,4.024648 197.193420,3.999916 188.432617,3.999997 
	C186.455627,4.000016 184.478653,4.000000 182.203369,4.000000 
	C193.707397,30.154324 205.158966,56.061485 216.478424,82.026237 
	C218.898270,87.576920 220.838715,93.336601 223.000000,99.000000 
	C158.312439,99.000000 93.624878,99.000000 28.181816,98.709579 
	C37.220181,92.091629 40.066265,82.549477 40.019001,71.566284 
	C39.946621,54.745804 40.000000,37.924786 40.000000,21.103992 
	C40.000000,15.496684 40.000000,9.889377 40.000000,4.247693 
	C35.098053,4.247693 30.694340,4.247693 26.000000,4.247693 
	C26.000000,26.611767 25.831671,48.731216 26.063196,70.846481 
	C26.201853,84.090889 22.684998,85.873253 12.106009,85.003563 
	C8.381210,84.697357 4.836724,84.616623 3.724331,89.471649 
	C3.568134,90.153381 1.944423,90.498871 1.000000,91.000000 
	C1.000000,61.033684 1.000000,31.067366 1.000000,1.000000 
	C100.687538,1.000000 200.375107,1.000000 300.834076,1.306083 
	C287.439606,32.977943 273.273712,64.343719 258.976654,96.000000 
	C262.630310,96.000000 265.849762,95.582970 268.910889,96.101112 
	C273.139526,96.816856 274.659241,94.437553 275.970978,91.268646 
	C278.049347,86.247757 279.941254,81.122330 282.451233,76.323112 
	C283.267639,74.762077 285.727295,73.238106 287.508423,73.148430 
	C294.643494,72.789185 301.885803,73.666603 308.941010,72.835297 
	C318.260010,71.737236 324.471375,73.942078 326.521698,83.969673 
	C328.710907,94.676582 335.695831,98.158325 346.000000,96.000000 
M74.000000,65.508865 
	C74.000000,61.406467 74.000000,57.304066 74.000000,52.828880 
	C87.305977,52.828880 100.047470,52.828880 112.713356,52.828880 
	C112.713356,48.021748 112.713356,43.615833 112.713356,38.823792 
	C99.690216,38.823792 86.949783,38.823792 74.288750,38.823792 
	C74.288750,31.684368 74.288750,24.946335 74.288750,17.820183 
	C87.314919,17.820183 100.056686,17.820183 112.708954,17.820183 
	C112.708954,13.013182 112.708954,8.607300 112.708954,4.289586 
	C95.347702,4.289586 78.278938,4.289586 61.283405,4.289586 
	C61.283405,35.311817 61.283405,66.043640 61.283405,96.718948 
	C78.637756,96.718948 95.707214,96.718948 112.715836,96.718948 
	C112.715836,92.026611 112.715836,87.620689 112.715836,82.828674 
	C99.695297,82.828674 86.954338,82.828674 74.000000,82.828674 
	C74.000000,77.124214 74.000000,71.815147 74.000000,65.508865 
M125.000000,13.533641 
	C125.000000,41.287155 125.000000,69.040665 125.000000,96.710297 
	C142.654984,96.710297 159.724854,96.710297 176.706970,96.710297 
	C176.706970,92.009460 176.706970,87.603546 176.706970,82.810913 
	C163.677094,82.810913 150.936066,82.810913 138.294495,82.810913 
	C138.294495,72.672813 138.294495,62.934883 138.294495,52.808502 
	C151.326828,52.808502 164.068756,52.808502 176.702850,52.808502 
	C176.702850,47.999386 176.702850,43.593071 176.702850,38.802773 
	C163.668686,38.802773 150.927673,38.802773 138.299545,38.802773 
	C138.299545,31.662249 138.299545,24.922466 138.299545,17.798450 
	C151.337143,17.798450 164.079056,17.798450 176.697754,17.798450 
	C176.697754,12.991631 176.697754,8.585769 176.697754,4.301084 
	C159.324966,4.301084 142.255920,4.301084 125.000000,4.301084 
	C125.000000,7.248505 125.000000,9.896281 125.000000,13.533641 
z"/>
<path fill="#FFFFFF" opacity="1.000000" stroke="none" 
	d="
M346.000000,95.583336 
	C335.695831,98.158325 328.710907,94.676582 326.521698,83.969673 
	C324.471375,73.942078 318.260010,71.737236 308.941010,72.835297 
	C301.885803,73.666603 294.643494,72.789185 287.508423,73.148430 
	C285.727295,73.238106 283.267639,74.762077 282.451233,76.323112 
	C279.941254,81.122330 278.049347,86.247757 275.970978,91.268646 
	C274.659241,94.437553 273.139526,96.816856 268.910889,96.101112 
	C265.849762,95.582970 262.630310,96.000000 258.976654,96.000000 
	C273.273712,64.343719 287.439606,32.977943 301.302734,1.306083 
	C301.750000,1.000000 302.500000,1.000000 303.625061,1.389249 
	C309.876709,14.911258 315.744232,28.048071 321.632324,41.175655 
	C327.851410,55.041103 333.996094,68.941383 340.394379,82.723793 
	C341.779327,85.707031 344.106689,88.252762 346.000000,91.000000 
	C346.000000,92.388893 346.000000,93.777779 346.000000,95.583336 
M304.972229,36.817696 
	C299.822662,31.118130 299.344269,39.404652 299.087738,39.883972 
	C295.346008,46.875492 292.282288,54.229889 288.928467,61.786964 
	C297.970245,61.786964 306.709930,61.786964 315.938721,61.786964 
	C314.891113,59.254471 313.959198,56.780151 312.857849,54.383720 
	C310.281158,48.777248 307.623138,43.208134 304.972229,36.817696 
z"/>
<path fill="#FFFFFF" opacity="1.000000" stroke="none" 
	d="
M223.375000,99.000000 
	C220.838715,93.336601 218.898270,87.576920 216.478424,82.026237 
	C205.158966,56.061485 193.707397,30.154324 182.203369,4.000000 
	C184.478653,4.000000 186.455627,4.000016 188.432617,3.999997 
	C197.193420,3.999916 197.135712,4.024648 200.588501,12.080378 
	C208.094025,29.591482 215.666107,47.074047 223.203156,64.571648 
	C223.540726,65.355347 223.801407,66.172157 224.097931,66.973526 
	C224.537216,66.673767 224.976517,66.374001 225.415817,66.074242 
	C229.943710,55.887047 234.485550,45.706020 238.995438,35.510864 
	C243.205429,25.993679 247.280487,16.414288 251.685211,6.988577 
	C252.320145,5.629890 254.391190,4.314359 255.932938,4.133705 
	C259.514221,3.714074 263.178162,4.000065 267.812897,4.000065 
	C253.469406,35.918484 239.432373,67.154938 225.697662,98.695694 
	C225.250000,99.000000 224.500000,99.000000 223.375000,99.000000 
z"/>
<path fill="#000000" opacity="1.000000" stroke="none" 
	d="
M346.000000,90.531342 
	C344.106689,88.252762 341.779327,85.707031 340.394379,82.723793 
	C333.996094,68.941383 327.851410,55.041103 321.632324,41.175655 
	C315.744232,28.048071 309.876709,14.911258 304.000061,1.389249 
	C317.953430,1.000000 331.906891,1.000000 346.000000,1.000000 
	C346.000000,30.687426 346.000000,60.375053 346.000000,90.531342 
z"/>
<path fill="#FFFFFF" opacity="1.000000" stroke="none" 
	d="
M1.000000,91.494736 
	C1.944423,90.498871 3.568134,90.153381 3.724331,89.471649 
	C4.836724,84.616623 8.381210,84.697357 12.106009,85.003563 
	C22.684998,85.873253 26.201853,84.090889 26.063196,70.846481 
	C25.831671,48.731216 26.000000,26.611767 26.000000,4.247693 
	C30.694340,4.247693 35.098053,4.247693 40.000000,4.247693 
	C40.000000,9.889377 40.000000,15.496684 40.000000,21.103992 
	C40.000000,37.924786 39.946621,54.745804 40.019001,71.566284 
	C40.066265,82.549477 37.220181,92.091629 27.713158,98.709579 
	C18.999851,99.000000 9.999702,99.000000 1.000000,99.000000 
	C1.000000,96.589920 1.000000,94.289696 1.000000,91.494736 
z"/>
<path fill="#FFFFFF" opacity="1.000000" stroke="none" 
	d="
M74.000000,66.007469 
	C74.000000,71.815147 74.000000,77.124214 74.000000,82.828674 
	C86.954338,82.828674 99.695297,82.828674 112.715836,82.828674 
	C112.715836,87.620689 112.715836,92.026611 112.715836,96.718948 
	C95.707214,96.718948 78.637756,96.718948 61.283405,96.718948 
	C61.283405,66.043640 61.283405,35.311817 61.283405,4.289586 
	C78.278938,4.289586 95.347702,4.289586 112.708954,4.289586 
	C112.708954,8.607300 112.708954,13.013182 112.708954,17.820183 
	C100.056686,17.820183 87.314919,17.820183 74.288750,17.820183 
	C74.288750,24.946335 74.288750,31.684368 74.288750,38.823792 
	C86.949783,38.823792 99.690216,38.823792 112.713356,38.823792 
	C112.713356,43.615833 112.713356,48.021748 112.713356,52.828880 
	C100.047470,52.828880 87.305977,52.828880 74.000000,52.828880 
	C74.000000,57.304066 74.000000,61.406467 74.000000,66.007469 
z"/>
<path fill="#FFFFFF" opacity="1.000000" stroke="none" 
	d="
M125.000000,13.038849 
	C125.000000,9.896281 125.000000,7.248505 125.000000,4.301084 
	C142.255920,4.301084 159.324966,4.301084 176.697754,4.301084 
	C176.697754,8.585769 176.697754,12.991631 176.697754,17.798450 
	C164.079056,17.798450 151.337143,17.798450 138.299545,17.798450 
	C138.299545,24.922466 138.299545,31.662249 138.299545,38.802773 
	C150.927673,38.802773 163.668686,38.802773 176.702850,38.802773 
	C176.702850,43.593071 176.702850,47.999386 176.702850,52.808502 
	C164.068756,52.808502 151.326828,52.808502 138.294495,52.808502 
	C138.294495,62.934883 138.294495,72.672813 138.294495,82.810913 
	C150.936066,82.810913 163.677094,82.810913 176.706970,82.810913 
	C176.706970,87.603546 176.706970,92.009460 176.706970,96.710297 
	C159.724854,96.710297 142.654984,96.710297 125.000000,96.710297 
	C125.000000,69.040665 125.000000,41.287155 125.000000,13.038849 
z"/>
<path fill="#000000" opacity="1.000000" stroke="none" 
	d="
M304.985168,37.220791 
	C307.623138,43.208134 310.281158,48.777248 312.857849,54.383720 
	C313.959198,56.780151 314.891113,59.254471 315.938721,61.786964 
	C306.709930,61.786964 297.970245,61.786964 288.928467,61.786964 
	C292.282288,54.229889 295.346008,46.875492 299.087738,39.883972 
	C299.344269,39.404652 299.822662,31.118130 304.985168,37.220791 
z"/>
</svg>